<svg xmlns="http://www.w3.org/2000/svg" width="12.608" height="18.744" viewBox="0 0 12.608 18.744">
  <g id="rupee" transform="translate(-56.365)">
    <g id="Group_8758" data-name="Group 8758" transform="translate(56.365)">
      <path id="Path_8968" data-name="Path 8968" d="M68.428,4.9H65.663A5.45,5.45,0,0,0,63.48,1.089h4.948a.544.544,0,0,0,0-1.089H56.909a.544.544,0,0,0,0,1.089h3.3A4.4,4.4,0,0,1,64.569,4.9H56.909a.544.544,0,0,0,0,1.089h7.659a4.406,4.406,0,0,1-4.36,3.865H56.915a.553.553,0,0,0-.544.561.562.562,0,0,0,.169.392l8.236,7.79a.542.542,0,0,0,.768-.022.556.556,0,0,0-.022-.778l-7.246-6.854H60.2a5.5,5.5,0,0,0,5.46-4.954h2.765a.544.544,0,0,0,0-1.089Z" transform="translate(-56.365 0)" fill="#2a2a2a"/>
    </g>
  </g>
</svg>
